<svg xmlns="http://www.w3.org/2000/svg" version="1.1" xmlns:xlink="http://www.w3.org/1999/xlink" xmlns:svgjs="http://svgjs.dev/svgjs" viewBox="0 0 800 800"><defs><linearGradient x1="50%" y1="0%" x2="50%" y2="100%" id="ssscribble-grad"><stop stop-color="hsl(206, 75%, 49%)" stop-opacity="1" offset="0%"></stop><stop stop-color="hsl(331, 90%, 56%)" stop-opacity="1" offset="100%"></stop></linearGradient></defs><g fill="none" stroke-width="1.5" stroke="url(#ssscribble-grad)" stroke-linecap="round"><path d="M1100.03 370.51C1078.37 403.37 978.24 408.96 840.91 391.98 712.35 380.31 632.98 361.48 619.2 359.51 669.57 398.66 757.14 491.29 849.49 641.66 929.1 800.88 968.37 926.51 963.49 945.9 920.24 847.46 846.9 681.33 759.79 573.59 662.64 634.71 571.53 842.74 492.99 1039.67 419.38 1045.96 359.39 852.9 311.01 660.26 265.38 695.25 226.79 931.85 193.93 1100.49 148.28 869.13 105.66 895.19 122.43 1061.69 144.03 908.3 181.01 684.02 227.52 568.22 263.99 625.37 290.15 782.46 290.33 911.03 252.14 941.4 173.91 854.31 60.08 708.81 -66.47 547.86 -183.51 429.35 -257.98 362.46 -268.28 336.17 -207.61 335.98 -91.73 337.44 32.9 346.99 126.37 338.76 148.03 305.91 83.16 273.05 -36.49 217.12 -162.16 145.6 -254.79 82.16 -277.49 22.56 -228.06 -8.09 -123.23 1.82 6.41 66.2 127.28 176.5 219.79 271.37 268.43 311.31 276.55 237.9 248.64 66.27 203.32 -129.78 156.92 -221.17 91.67 -42.22 60.49 -15.38 86.88 -291.22 111.44 -200.91 141.48 41.76 174.34 148.51 207.2 -20.06 241.33 -250.03 278.74 -272.4 319.37 -67.11 369.06 144.67 431.84 162.52 502.81 -10.29 589.66 -188.88 689.19 -215.81 786.23 -73.88 878.73 131.19 949.71 272.73 984.66 296.43 974.98 218 916.69 109.43 830.03 9.7 729.86 -28.82 649.11 -11.04 623.77 47.85 665.17 126.45 770.49 200.1 908.84 279.05 1035.15 337.64 1100.03 370.51Q1100.03 370.51 1100.03 370.51" opacity="0.74"></path><path d="M1066.03 178.77C1048.81 209.29 961.96 234.81 837.47 263.07 711.64 301.29 619.6 360.16 580.26 452.12 598.36 562.95 659.13 697.49 738.92 824.78 824.26 896.39 887.53 887.04 918.43 782.86 919.25 644.3 887.64 540.6 834.05 562.14 763.14 719.53 686.64 927.37 613.53 1034.24 538.51 953.31 473.14 748.22 419.51 610.01 366.77 687.27 324.85 916.08 294.34 1066.49 254.99 859.5 242.37 791.68 269.44 1024.95 289.67 975.81 315.92 786.12 339.8 600.01 346.37 524.58 334.17 586.94 293.35 716.6 222.46 844.26 123.01 893.43 5.9 858.36 -105.65 757.1 -193.79 630.17 -234.25 513.82 -217.29 406.64 -142.61 330.73 -28.56 279.25 84.15 237.01 164.81 204.07 182.03 173.55 124.3 143.04 17.08 116.4 -100.98 101.09 -198.77 95.02 -241.79 115.41 -222.1 169.7 -148.06 233.16 -38.65 309.85 78.97 364.1 187.46 352.16 267.14 259.21 313.05 91.56 326.01 -78.08 313.93 -176.65 289.15 -133.02 251.75 21.29 218.59 183.63 196.33 210.44 172.26 -53.84 195.33 -21.45 235.93 182.51 266.45 32.16 305.85 -190.48 354.41 -256.02 404.7 -106.08 466.73 116.39 540.42 219.72 615.56 135.25 698.97 -45.21 783.4 -170.85 855.2 -160.65 911.1 -20.79 938.13 157.75 932.21 301.94 888.71 355.12 811.99 330.56 726.13 250.31 644.08 166.02 592.41 108.06 595.09 68.98 655.48 65.6 765.05 84.92 894.9 114.2 1008.3 148.26 1066.03 178.77Q1066.03 178.77 1066.03 178.77" opacity="0.87"></path><path d="M1032.03 275.05C1018.82 303.22 944.7 350.65 833.93 418.01 714.43 487.77 615.4 578.07 555.95 679.82 544.08 765.31 574.5 829.37 632.02 842.49 707.79 798.14 778.12 696.24 830.15 571.1 864.51 495.15 871.3 510.72 854.69 641.3 820.17 827.31 772.34 973.89 719.46 979.04 660.27 839.4 604.15 651.76 555.58 573.06 506.21 683.43 466.5 899.78 438.33 1032.49 402.52 850.69 389.02 689.39 401.83 940.49 405.9 991.18 407.35 886.83 398.45 705.61 371.66 543.08 324.42 480.52 253.15 519.36 164.21 629.08 60.48 741.32 -44.61 811.24 -131.46 832.07 -187.13 797.01 -195.91 730.76 -157.11 641.39 -74.11 554.88 34.51 484.58 134.41 414.19 202.82 364.18 216.03 336.01 165.1 307.84 70.22 302.83 -38.63 320.1 -166.66 354.91 -118.74 424.91 24.67 355.03 133.3 241.72 229.05 89.04 302.19 -57.6 351.56 -133.38 375.97 -104.24 382.28 28.94 371.97 180.83 356.17 259.96 342.5 188.66 320.5 -91.09 329.46 37.49 365.2 216.51 393.37 83.86 433.23 -126.79 483.47 -226.34 533.71 -136.81 593.67 66.84 660.13 227.16 722.61 242.68 784.8 121.37 838.52 -35.31 875.62 -136.57 891.64 -118.76 879.19 -5.9 842.97 156.15 780.62 298.49 701.31 386.25 628.36 416.55 571.34 398.87 549.56 362.2 576.74 309.26 650.99 270.2 760.78 253.55 880.51 239.32 981.1 246.88 1032.03 275.05Q1032.03 275.05 1032.03 275.05" opacity="0.87"></path><path d="M998.03 533.99C988.4 559.81 926.33 601.53 829.81 653.58 719.64 700 619.1 744.34 545.81 771.18 508.76 772.5 509.2 736.99 539.14 660.6 593.81 572.57 655.58 485.02 712.11 440.67 763.64 475.57 796.7 593.22 810.34 763.5 810.6 907.94 794.94 960.02 768.82 879.3 735.32 717.06 698.34 570.09 662.57 549.6 625.09 682.94 592.33 882.84 566.51 998.49 540.69 936.38 523.03 748 511.82 578.8 498.9 542.71 488.91 653.15 477.66 819.94 459.04 941.14 432.18 938.61 392.12 825.72 338.69 656.87 268.56 512.61 183.19 439.31 92.82 445.76 0.45 510.69 -81.1 593.64 -137.93 680.09 -161.53 734.75 -143.4 753.98 -89.03 749.64 -3.19 722.5 97.01 686.93 183.57 644.68 240.4 607.58 250.03 581.76 205.55 555.93 122.75 542.62 24.39 536.17 -71.99 523.05 -140.08 503.24 -167.93 462.84 -155.09 398.87 -103.05 301.7 -24.74 175.47 70.14 52.72 165.88 -49.29 251.3 -89.6 324.56 -50.17 378.64 63.46 415.08 205.43 436.62 291.46 447.24 270.87 452.99 130.77 452.18 -54.95 453.62 -180.1 461.25 -154.03 467.63 5.17 482.96 188.33 508.78 250.5 534.6 134.91 569.69 -59.76 612 -183.17 653.06 -152.76 698.59 8.88 744.15 190.05 783.14 289.72 815.04 260.81 833.29 143.26 836.65 -0.13 819.64 -87.17 780.22 -88.24 728.64 -10.05 663.51 114.55 595.51 242.38 544.08 358.56 515.2 436.6 521.28 480.03 568.06 497.93 650.85 500.55 757.2 502.83 865.52 499.48 953.55 508.17 998.03 533.99Q998.03 533.99 998.03 533.99" opacity="0.96"></path><path d="M964.03 618.47C957.54 641.94 906.71 658.84 824.57 665.32 726.1 666.67 629.02 649.16 548.47 608.37 492.8 560.46 467.15 495.96 468.88 430.76 496.12 395.44 537.81 400.27 584.09 465.34 635.26 581.93 678.01 730.33 708.29 862.03 732.08 921.14 741.84 880.92 739.58 750.02 731.67 600.58 715.84 508.31 695.34 539.08 673.12 684.89 649.47 865.15 626 964.5 602.53 915.1 580.35 751.81 558.3 582.06 534.53 501.87 507.66 549.74 474.9 682.87 436.48 831.35 388.06 911.77 328.1 894.57 261.64 791.68 185.19 647.97 103.26 515.28 26.22 419.42 -43.29 381.58 -94.98 390.42 -121.15 436.69 -116.55 493.72 -78.09 542.43 -14.73 590.2 68.97 617 158.38 623.59 231.47 626.13 277.54 614.32 284.03 590.85 245.66 567.38 174.58 533.35 87.62 486.54 -3.03 435.69 -75.75 366.2 -119.15 277.75 -131.46 188.36 -109.05 92.67 -59.03 10.22 12.19 -34.78 93.97 -30.64 176.07 34.45 256.73 136.38 326.66 252.26 383.56 330.71 430.91 323.46 466.55 221.99 493.59 56.31 514.46 -94.02 531.95 -155.25 549.37 -84.11 565.14 76.57 584.08 235.1 607.55 284.5 631.02 185.15 657.92 9.64 686.41 -127.1 713.25 -148.81 738.46 -43.19 758.27 123.46 771.92 271.56 774.94 332.83 763.77 298.15 743.05 190.9 706.82 70.33 656.92 -15.49 605.59 -49.79 551.63 -20.93 504.84 50.56 479.25 151.94 477.89 255.09 507.39 343.68 567.99 425.14 654.06 485.35 753.77 528.27 849.79 566.05 925.63 594.99 964.03 618.46Q964.03 618.47 964.03 618.47" opacity="0.87"></path><path d="M929.96 418.38C926.36 439.5 886.05 442.79 818.16 429.77 733.11 417.42 643.71 391.7 562.14 359.78 495.27 339.96 449.85 331.31 426.76 349.16 425.73 400.8 441.52 490.31 467.52 611.24 504.01 733.38 540.47 835.33 571.86 880.56 603.22 851.21 625.2 750.58 636.97 612.57 646.14 503.13 646.07 469.3 637.9 540 628.64 688.15 613.16 846.46 592.04 930.39 570.91 892.47 545.14 755.11 514.56 594.21 482.9 484.47 444.54 473.4 398.76 552.35 350.37 684.69 293.6 805.22 229.69 869 165.74 862 98.95 788.01 34.77 677.87 -18.91 552.97 -59.74 446.85 -80.71 372.99 -79.61 329.28 -53.14 315.77 -1.75 319.4 64.32 338.19 141.7 356.47 218.6 365.36 278.33 376.29 314.36 372.46 317.96 351.33 285.1 330.22 225.08 292.81 149.98 242.05 67.66 193.32 -4.75 136.6 -57.42 81.19 -88.57 40.95 -91.74 19.66 -69.76 30.79 -26.78 72.09 31.71 147.87 97.83 245.08 169.99 327.54 239.69 376.51 302.68 361.53 362.38 275.78 413.05 136.32 454.9 -11.51 492.91 -105.96 524.48 -106.95 551.22 -5.4 576.65 147.33 599.63 280.43 620.76 318.4 641.88 234.52 660.15 80.49 674.55 -59.52 687.65 -122.1 694.51 -76.28 693.12 48.63 687.88 202.13 672 321.72 644.85 373.08 614.42 349.85 575.05 272.95 530.58 178.5 475.43 55.66 448.79 43.41 506.48 121.56 574.63 190.09 659.08 254.24 749.55 306.43 832.8 359.29 897.1 397.25 929.96 418.38Q929.96 418.38 929.96 418.38" opacity="0.63"></path><path d="M896.02 194.39C894.49 213.17 863.37 225.45 808.89 234.34 738.06 246.91 659.61 263.32 582.75 290.8 512.49 331.2 455.56 391.6 414.62 474.34 389.9 566.45 380.48 667.83 382.84 760.85 396.87 821.85 416.07 838.82 436.01 798.65 460.05 713.26 480 598.26 493.53 490.52 507.28 435.34 513.32 454.04 511.06 550.69 508.53 692.11 498.03 827.05 479.25 896.51 460.47 868.71 434.31 757.15 401.42 612.78 368.27 489.18 328.07 431.41 281.78 450.48 235.7 535.25 184.83 647.56 131.85 748.18 82.97 816.77 36.81 831.63 -1.82 797.93 -28.79 725.16 -41.63 632.78 -36.47 540.03 -15.07 448.74 25 375.4 81.5 321.39 144.6 278.48 212.36 249.41 275.95 228.17 323.17 210.72 350.49 194.04 352.02 175.26 324.66 156.48 275.33 136.49 212.39 118.53 140.4 104.36 72.35 99.27 16.18 109.64 -27.05 131.1 -49.82 173.53 -52.2 235.88 -37.15 299.68 -5.76 365.1 36.82 413.26 88.93 422.35 144.78 385.23 199.87 297.09 256.65 176.91 308.77 47.77 354.44 -50.76 399.06 -83.59 437.11 -36.52 468.39 79.83 499.07 216.96 523.95 324.71 542.73 352.51 561.51 283.05 573.3 151.91 578.04 17.74 582.17 -71.65 578.29 -79.67 566.21 -10.73 553.08 110.76 531.89 242.61 504.05 347.55 477.9 407.27 449.01 412.56 421.5 376.18 403.52 307.76 394.38 233.35 398.88 170.17 420.81 116.37 460.41 86.9 517.41 79.04 587.34 84.11 666.07 101.86 745.31 124.69 815.5 151.22 868.64 175.61 896.02 194.38Q896.02 194.39 896.02 194.39" opacity="0.65"></path><path d="M862.02 238.06C840.36 270.93 739.89 344.27 608.18 464.04 479.72 589.02 388.59 728.2 341.79 793.52 339.09 642.82 368.41 575.93 333.48 862.5 300.62 755.75 242.14 508.33 168.71 392.32 102.68 491.48 39.77 674.15 5.2 775.46 8.93 760.13 65.21 649.33 169.59 531.07 277.21 405.8 364.36 324.45 386.02 291.59 321.15 258.73 208.16 277.47 98.06 345.79 12.11 407.1 -14.02 466.62 12.13 438.87 75.41 294.5 157.35 76.97 233.08 -46.26 312.78 45.65 373.12 279.75 405.98 386.5 439.98 106.59 384.25 245.74 348.71 456.94 365.62 434.68 426.62 346.79 536.65 278.76 670.85 215.94 797.15 205.2 862.02 238.06Q862.02 238.06 862.02 238.06" opacity="0.98"></path><path d="M828.03 492.5C814.81 520.66 740.11 587.55 634.28 669.46 518.43 725.83 418.81 740.99 348.3 670.13 302.22 546.51 278.25 406.15 263.32 363.76 256.88 481.2 243.38 695.8 215.22 828.5 187.05 752.54 146.88 543.23 104.51 383.97 70.63 370.14 50.64 480.97 59.8 609.35 93.4 710.44 163.14 729.94 258.34 697.47 343.52 635.69 406.81 577.3 420.03 549.13 369.12 520.96 279.84 525.69 185.31 538.66 96.56 522.32 45.06 458.87 33.54 320.86 49.72 155.57 90.45 14.86 137.81 8.02 192.36 146.6 238.52 344.49 266.68 420.51 298.61 186.25 299.69 135.96 322.03 381.62 370.46 489.41 451.84 518.2 561.23 510.65 676.4 477.55 777.1 464.32 828.03 492.49Q828.03 492.5 828.03 492.5" opacity="0.83"></path><path d="M794.03 626.54C787.54 650.01 735.95 666.68 657.41 660.82 563.66 636.72 472.12 567.24 395.96 459.48 330.59 369.58 282.74 322.09 248.7 373.2 220.61 516.91 196.6 695.16 173.13 794.5 149.65 745.1 128.95 583.93 116.36 420.35 109.72 325.58 120.94 331.55 155.54 398.13 200.94 500.64 267.58 580.34 344.13 618.11 405.46 641.66 447.54 635.89 454.03 612.42 415.66 588.95 349.06 550 274.26 485.77 194.8 407.32 134.96 290.99 101.61 157.73 83.73 60.37 88.49 29.5 106.94 107.04 131.58 253.4 158.95 405.06 182.42 454.51 205.89 355.21 223.25 186.47 239.28 59.93 261.5 26 293.37 98.39 342.01 219.05 406.12 357.58 490.85 463.7 587.52 528.47 679.52 575.01 755.64 603.06 794.03 626.53Q794.03 626.54 794.03 626.54" opacity="0.46"></path><path d="M760 465.57C758.54 484.35 726.6 472.19 674.2 432.84 607.35 394.7 535.81 339.34 469.91 290.87 405.47 281.42 351.7 321.53 310.83 422.78 272.44 557.68 243.53 690.95 224.76 760.45 205.98 732.7 199.1 622.56 204.95 486.54 213.28 363.22 237.75 291.22 277.57 271.48 318.86 294.42 370.49 335.2 423.58 367.54 462.21 405.01 486.54 417.86 488 399.08 460.57 380.31 414.56 331.67 361.01 261.66 299.08 196.78 245.41 126.7 206.89 79.14 173.78 74.28 157.38 126.36 155.83 235.91 157.63 358.17 169.05 460.7 187.83 488.45 206.61 418.95 230.97 293.29 261.71 172.16 295.8 84.67 341.5 64.47 399.23 98.54 462.36 171.62 535.94 256.28 611.64 326.97 678.95 398.86 732.57 446.8 760 465.57Q760 465.57 760 465.57" opacity="0.19"></path><path d="M726.03 219.26C712.81 247.42 636.89 233.28 548.99 264.59 451.5 382.87 376.62 593.8 348.45 726.5 320.28 650.52 344.17 446.05 404.74 300.59 455.73 227 508.81 215.13 522.03 186.97 471.12 158.8 392.98 119.67 332.87 156.34 272.15 264.88 252.71 446.52 280.88 522.5 309.04 389.8 379.48 201.71 477.12 120.34 574.15 125.94 675.12 191.09 726.03 219.26Q726.03 219.26 726.03 219.26" opacity="0.78"></path><path d="M692.03 208.2C660.27 245.76 531.14 486.39 493.59 692.49 456.03 551.74 524.27 289.71 556.03 252.15 475.93 214.6 385.38 415.74 422.94 556.49 460.49 350.39 611.93 170.65 692.03 208.2Q692.03 208.2 692.03 208.2" opacity="0.60"></path></g></svg>